<svg width="16" height="17" viewBox="0 0 16 17" fill="none" xmlns="http://www.w3.org/2000/svg">
<path d="M5.96032 14.8486C4.90923 14.8567 3.9677 14.1999 3.61247 13.2106C3.25723 12.2213 3.56584 11.1156 4.38203 10.4533C3.80312 9.98474 3.46677 9.27981 3.46677 8.53504C3.46677 7.79028 3.80312 7.08534 4.38203 6.6168C3.56558 5.9547 3.25678 4.84889 3.61209 3.85958C3.96739 2.87027 4.90917 2.21359 5.96032 2.22214H9.81764C10.8688 2.21359 11.8106 2.87027 12.1659 3.85958C12.5212 4.84889 12.2124 5.9547 11.3959 6.6168C12.2121 7.27912 12.5207 8.38485 12.1655 9.37412C11.8102 10.3634 10.8687 11.0202 9.81764 11.012C9.33215 11.0126 8.85708 10.8713 8.45085 10.6054V12.3731C8.44493 13.7437 7.3309 14.8509 5.96032 14.8486ZM5.94643 11.0126C5.19866 11.0244 4.60091 11.6381 4.60875 12.3859C4.61659 13.1338 5.22708 13.7348 5.97493 13.7309C6.72278 13.727 7.32701 13.1197 7.32711 12.3718V11.0126H5.94579H5.94643ZM9.81827 7.17614C9.06851 7.17997 8.46345 7.7902 8.466 8.53996C8.46855 9.28973 9.07775 9.89583 9.82752 9.89456C10.5773 9.89329 11.1844 9.28513 11.1844 8.53536C11.1816 7.78288 10.5701 7.17474 9.81764 7.17614H9.81827ZM5.96095 7.17612C5.47534 7.17355 5.02525 7.43022 4.7802 7.84946C4.53515 8.26871 4.53239 8.78684 4.77294 9.20868C5.01349 9.63052 5.46082 9.89198 5.94643 9.89458H7.32711V7.17612H5.96095ZM8.45085 3.33965V6.05873H9.81701C10.5478 6.06213 11.1507 5.48764 11.1825 4.75758V5.0322V4.69887C11.1794 3.94728 10.5692 3.33965 9.81764 3.33965H8.45085ZM5.95968 3.33965C5.47408 3.33965 5.02537 3.59872 4.78257 4.01926C4.53977 4.4398 4.53977 4.95793 4.78257 5.37848C5.02537 5.79902 5.47408 6.05809 5.95968 6.05809H7.32711V3.33965H5.95968Z" fill="#516CF7"/>
</svg>
