<svg width="14" height="14" viewBox="0 0 14 14" fill="none" xmlns="http://www.w3.org/2000/svg">
<path d="M6.01773 1.08878C3.53372 1.57358 1.53202 3.57027 1.04221 6.04677C0.117578 10.7199 4.3334 14.2035 7.50964 13.7112C8.53923 13.5512 9.04403 12.3467 8.57172 11.4196C7.99445 10.285 8.81912 8.96059 10.0936 8.96059H12.0853C12.98 8.96059 13.7047 8.22089 13.7072 7.32875C13.6947 3.39034 10.1111 0.2916 6.01773 1.08878ZM3.31131 8.96059C2.86898 8.96059 2.51163 8.60323 2.51163 8.16091C2.51163 7.71859 2.86898 7.36123 3.31131 7.36123C3.75363 7.36123 4.11099 7.71859 4.11099 8.16091C4.11099 8.60323 3.75363 8.96059 3.31131 8.96059ZM4.11099 5.76188C3.66867 5.76188 3.31131 5.40453 3.31131 4.96221C3.31131 4.51989 3.66867 4.16253 4.11099 4.16253C4.55332 4.16253 4.91067 4.51989 4.91067 4.96221C4.91067 5.40453 4.55332 5.76188 4.11099 5.76188ZM7.30972 4.16253C6.8674 4.16253 6.51004 3.80518 6.51004 3.36286C6.51004 2.92053 6.8674 2.56318 7.30972 2.56318C7.75204 2.56318 8.1094 2.92053 8.1094 3.36286C8.1094 3.80518 7.75204 4.16253 7.30972 4.16253ZM10.5084 5.76188C10.0661 5.76188 9.70877 5.40453 9.70877 4.96221C9.70877 4.51989 10.0661 4.16253 10.5084 4.16253C10.9508 4.16253 11.3081 4.51989 11.3081 4.96221C11.3081 5.40453 10.9508 5.76188 10.5084 5.76188Z" fill="#9251F7"/>
</svg>
