<svg width="8" height="10" viewBox="0 0 8 10" fill="none" xmlns="http://www.w3.org/2000/svg">
<path d="M4.03038 9.81314C3.39247 9.26901 2.80118 8.67249 2.2627 8.02981C1.45462 7.06465 0.495026 5.62728 0.495026 4.25758C0.49431 2.82705 1.35576 1.53707 2.67738 0.989603C3.99901 0.442132 5.52031 0.745079 6.53139 1.75708C7.19627 2.419 7.56872 3.3194 7.56575 4.25758C7.56575 5.62728 6.60614 7.06465 5.79806 8.02981C5.25958 8.67249 4.66829 9.26901 4.03038 9.81314ZM4.03038 2.74243C3.48907 2.74243 2.98888 3.03122 2.71822 3.50001C2.44756 3.9688 2.44756 4.54637 2.71822 5.01516C2.98888 5.48395 3.48907 5.77273 4.03038 5.77273C4.86718 5.77273 5.54553 5.09438 5.54553 4.25758C5.54553 3.42079 4.86718 2.74243 4.03038 2.74243Z" fill="#79819A"/>
</svg>
