<svg width="13" height="16" viewBox="0 0 13 16" fill="none" xmlns="http://www.w3.org/2000/svg">
<path d="M6.64648 15.4848C5.5833 14.5779 4.59782 13.5837 3.70036 12.5126C2.35355 10.904 0.754227 8.50838 0.754227 6.22555C0.753034 3.84133 2.18878 1.69137 4.39149 0.778915C6.5942 -0.133537 9.1297 0.371376 10.8148 2.05804C11.923 3.16125 12.5437 4.6619 12.5388 6.22555C12.5388 8.50838 10.9394 10.904 9.59261 12.5126C8.69515 13.5837 7.70967 14.5779 6.64648 15.4848ZM6.64649 3.7003C5.7443 3.7003 4.91064 4.18161 4.45955 4.96292C4.00846 5.74424 4.00846 6.70686 4.45955 7.48818C4.91064 8.26949 5.7443 8.7508 6.64649 8.7508C8.04114 8.7508 9.17174 7.62021 9.17174 6.22555C9.17174 4.83089 8.04114 3.7003 6.64649 3.7003Z" fill="#79819A"/>
</svg>
