<svg width="15" height="15" viewBox="0 0 15 15" fill="none" xmlns="http://www.w3.org/2000/svg">
<path d="M13.5366 14.3602C6.35508 14.3704 0.904755 8.85476 0.912438 1.73609C0.912438 1.2712 1.2893 0.892227 1.75419 0.892227H3.97587C4.39302 0.892227 4.74739 1.19873 4.80864 1.61136C4.95545 2.60031 5.24338 3.56308 5.66368 4.47026L5.75018 4.65696C5.87045 4.91656 5.78893 5.22501 5.5561 5.39128C4.86807 5.88262 4.60513 6.87165 5.14113 7.64337C5.81376 8.61179 6.66163 9.45948 7.62983 10.1318C8.4015 10.6677 9.39037 10.4047 9.88171 9.71684C10.0481 9.48389 10.3567 9.40233 10.6165 9.52265L10.8023 9.60874C11.7096 10.029 12.6724 10.317 13.6614 10.4637C14.0741 10.525 14.3804 10.8793 14.3804 11.2965V13.5185C14.3804 13.9834 14.0027 14.3602 13.5378 14.3602L13.5366 14.3602Z" fill="#79819A"/>
</svg>
