<svg width="15" height="15" viewBox="0 0 15 15" fill="none" xmlns="http://www.w3.org/2000/svg">
<path d="M4.67089 14.5278C2.96873 14.5278 1.43417 13.5024 0.782673 11.9299C0.131177 10.3573 0.491031 8.54718 1.69446 7.34339L3.48065 5.5572L4.67089 6.74744L2.88553 8.53279C2.24754 9.17078 1.99837 10.1007 2.23189 10.9722C2.46542 11.8437 3.14615 12.5245 4.01767 12.758C4.88919 12.9915 5.81909 12.7423 6.45708 12.1043L8.24244 10.319L9.43267 11.5101L7.64732 13.2954C6.8595 14.0871 5.78777 14.5308 4.67089 14.5278ZM5.26601 10.9141L4.07577 9.72387L10.0278 3.77185L11.218 4.96208L5.26685 10.9133L5.26601 10.9141ZM11.814 9.12875L10.6229 7.93851L12.4083 6.15316C13.0549 5.51707 13.3108 4.58301 13.0785 3.70617C12.8462 2.82934 12.1615 2.14445 11.2847 1.91195C10.4079 1.67946 9.47379 1.93508 8.83755 2.58161L7.05136 4.36696L5.86112 3.17673L7.64732 1.39053C9.29301 -0.240809 11.9478 -0.234995 13.5863 1.40354C15.2249 3.04207 15.2307 5.69686 13.5993 7.34255L11.814 9.12791V9.12875Z" fill="#79819A"/>
</svg>
