<svg width="33" height="34" viewBox="0 0 33 34" fill="none" xmlns="http://www.w3.org/2000/svg">
<rect x="0.484848" y="0.969666" width="32.3232" height="32.3232" rx="16.1616" fill="#EA4C89"/>
<path d="M16.6465 25.5488C11.9976 25.5488 8.22897 21.7801 8.22897 17.1313C8.22897 12.4824 11.9976 8.71378 16.6465 8.71378C21.2953 8.71378 25.064 12.4824 25.064 17.1313C25.0589 21.778 21.2932 25.5437 16.6465 25.5488ZM12.5387 22.6405L12.5345 22.649C14.4563 24.0886 16.991 24.4184 19.2172 23.5185C18.8981 21.8024 18.4251 20.1186 17.8039 18.4873C16.3771 18.9848 15.0726 19.7805 13.9773 20.8215C13.4375 21.3326 12.9702 21.9152 12.5884 22.553L12.5825 22.5623V22.5538L12.5674 22.5833L12.5573 22.6001L12.5514 22.6111L12.5371 22.6414L12.5387 22.6405ZM20.6692 18.0109C20.2548 18.0115 19.8409 18.0396 19.4302 18.0951C19.9665 19.5938 20.3886 21.1311 20.6928 22.6936C22.1233 21.6624 23.0956 20.1143 23.4032 18.3779C22.5127 18.1322 21.593 18.0079 20.6692 18.0084V18.0109ZM9.75843 17.0934V17.1405C9.75997 18.7623 10.3338 20.3314 11.3788 21.5715C12.7326 19.4802 14.7351 17.8908 17.0791 17.0471L17.1793 17.0185C17.0303 16.6894 16.8906 16.3956 16.7509 16.1212C14.505 16.7509 12.1851 17.0779 9.85271 17.0934H9.75843ZM20.4057 16.5833C21.4502 16.5872 22.4923 16.6824 23.5202 16.8678C23.4667 15.4439 22.9686 14.0725 22.096 12.9461C21.0777 14.0849 19.8102 14.9733 18.3923 15.5421L18.4167 15.532L18.3906 15.5429C18.5413 15.8569 18.6734 16.1506 18.7837 16.4124C18.8098 16.4747 18.8317 16.5286 18.8519 16.5808L18.8864 16.665C19.3909 16.609 19.8982 16.5817 20.4057 16.5833ZM13.5968 10.9671C11.7663 11.8707 10.4311 13.54 9.95204 15.5244C11.9136 15.4941 13.8658 15.2462 15.7727 14.7853H15.7837H15.7963L15.8047 14.7744L15.8502 14.7634H15.8552L15.8889 14.7567H15.8965H15.9024L15.9201 14.7517L15.9537 14.7432L15.9731 14.7348L15.9916 14.7298H16H16.0084C14.8864 12.7542 13.7248 11.1439 13.596 10.9671H13.5968ZM16.6465 10.2617C16.1857 10.2606 15.7259 10.3043 15.2736 10.3922C16.1554 11.6141 16.9646 12.8868 17.697 14.2037C19.0085 13.7365 20.1783 12.9407 21.0943 11.8922C19.8508 10.8405 18.2751 10.2629 16.6465 10.2617Z" fill="white"/>
</svg>
