<svg width="65" height="66" viewBox="0 0 65 66" fill="none" xmlns="http://www.w3.org/2000/svg">
<g filter="url(#filter0_d_217_79)">
<rect x="16.4848" y="12.5353" width="32.3232" height="32.3232" rx="16.1616" fill="#0077B5"/>
<path d="M33.4882 36.2727H30.1212V26.1717H33.4882V27.8552C34.2059 26.9421 35.2943 26.3978 36.4554 26.3712C38.5434 26.3828 40.2283 28.082 40.2222 30.17V36.2727H36.8552V30.5909C36.7206 29.6504 35.9139 28.9525 34.9638 28.9545C34.5482 28.9677 34.1559 29.1496 33.8775 29.4584C33.599 29.7672 33.4585 30.1762 33.4882 30.5909V36.2727ZM28.4377 36.2727H25.0707V26.1717H28.4377V36.2727ZM26.7542 24.4882C25.8244 24.4882 25.0707 23.7345 25.0707 22.8047C25.0707 21.8749 25.8244 21.1212 26.7542 21.1212C27.684 21.1212 28.4377 21.8749 28.4377 22.8047C28.4377 23.2512 28.2603 23.6794 27.9446 23.9951C27.6289 24.3109 27.2007 24.4882 26.7542 24.4882Z" fill="white"/>
</g>
<defs>
<filter id="filter0_d_217_79" x="0.323233" y="0.414128" width="64.6465" height="64.6465" filterUnits="userSpaceOnUse" color-interpolation-filters="sRGB">
<feFlood flood-opacity="0" result="BackgroundImageFix"/>
<feColorMatrix in="SourceAlpha" type="matrix" values="0 0 0 0 0 0 0 0 0 0 0 0 0 0 0 0 0 0 127 0" result="hardAlpha"/>
<feOffset dy="4.0404"/>
<feGaussianBlur stdDeviation="8.08081"/>
<feColorMatrix type="matrix" values="0 0 0 0 0 0 0 0 0 0 0 0 0 0 0 0 0 0 0.06 0"/>
<feBlend mode="normal" in2="BackgroundImageFix" result="effect1_dropShadow_217_79"/>
<feBlend mode="normal" in="SourceGraphic" in2="effect1_dropShadow_217_79" result="shape"/>
</filter>
</defs>
</svg>
