<svg width="16" height="16" viewBox="0 0 16 16" fill="none" xmlns="http://www.w3.org/2000/svg">
<path d="M8.48822 15.2727H5.12121V5.17172H8.48822V6.85522C9.20592 5.94214 10.2943 5.39779 11.4554 5.37122C13.5434 5.38281 15.2283 7.08197 15.2222 9.17004V15.2727H11.8552V9.59091C11.7206 8.65036 10.9139 7.95251 9.96381 7.95455C9.54822 7.96769 9.15593 8.14965 8.87748 8.45844C8.59902 8.76723 8.45846 9.17618 8.48822 9.59091V15.2727ZM3.43771 15.2727H0.0707092V5.17172H3.43771V15.2727ZM1.75421 3.48822C0.824439 3.48822 0.0707092 2.73449 0.0707092 1.80472C0.0707092 0.874945 0.824439 0.121216 1.75421 0.121216C2.68398 0.121216 3.43771 0.874945 3.43771 1.80472C3.43771 2.25121 3.26034 2.67942 2.94463 2.99513C2.62891 3.31085 2.2007 3.48822 1.75421 3.48822Z" fill="white"/>
</svg>
