<svg width="19" height="15" viewBox="0 0 19 15" fill="none" xmlns="http://www.w3.org/2000/svg">
<path d="M16.3763 2.94269C17.1308 2.49158 17.6954 1.78127 17.9647 0.944372C17.2556 1.36508 16.4798 1.66144 15.6709 1.82063C14.5493 0.634209 12.7723 0.345488 11.3328 1.1158C9.89335 1.88611 9.14774 3.52475 9.51264 5.11609C6.60827 4.97027 3.90234 3.59834 2.06819 1.34168C1.11099 2.9927 1.60014 5.10328 3.18604 6.16491C2.61256 6.14647 2.0518 5.9912 1.55052 5.71205C1.55052 5.7272 1.55052 5.74235 1.55052 5.7575C1.55085 7.47733 2.76295 8.95875 4.44867 9.29959C3.91673 9.44431 3.35877 9.46561 2.81735 9.36188C3.29143 10.8326 4.64694 11.8402 6.19193 11.8703C4.91233 12.8746 3.33206 13.4193 1.7054 13.4166C1.41708 13.417 1.12898 13.4004 0.842606 13.3669C2.49445 14.4284 4.41699 14.9918 6.38048 14.9898C9.11218 15.0086 11.7374 13.9317 13.669 11.9999C15.6005 10.0682 16.6772 7.4429 16.6583 4.71121C16.6583 4.55464 16.6546 4.39892 16.6473 4.24403C17.3548 3.73276 17.9653 3.09938 18.4503 2.37366C17.7913 2.6658 17.0922 2.85761 16.3763 2.94269Z" fill="white"/>
</svg>
