<svg width="33" height="25" viewBox="0 0 33 25" fill="none" xmlns="http://www.w3.org/2000/svg">
<g clip-path="url(#clip0_217_112)">
<g clip-path="url(#clip1_217_112)">
<path d="M31.9102 -1.93945H1.3827C-0.600815 -1.93945 -2.20877 -0.251099 -2.20877 1.83159V22.5723C-2.20877 24.655 -0.600815 26.3434 1.3827 26.3434H31.9102C33.8937 26.3434 35.5017 24.655 35.5017 22.5723V1.83159C35.5017 -0.251099 33.8937 -1.93945 31.9102 -1.93945Z" fill="#22438B"/>
<path fill-rule="evenodd" clip-rule="evenodd" d="M3.17844 -0.0539551L-0.459717 -0.00493147L-0.413028 3.71709L30.0821 24.5106L33.7401 24.4409L33.6718 20.7415L3.17844 -0.0539551Z" fill="white"/>
<path fill-rule="evenodd" clip-rule="evenodd" d="M1.38268 -0.0539551L-0.413055 1.83157L31.9102 24.4578L33.7059 22.5723L1.38268 -0.0539551Z" fill="#C7152A"/>
<path fill-rule="evenodd" clip-rule="evenodd" d="M30.1145 -0.0539551H33.7059V3.71709C33.7059 3.71709 12.606 17.6624 3.21076 24.5106C3.09763 24.5936 -0.377118 24.5163 -0.377118 24.5163L-0.655457 20.9319L30.1145 -0.0539551Z" fill="white"/>
<path fill-rule="evenodd" clip-rule="evenodd" d="M31.9874 -0.10675L33.7059 1.83157L1.38268 24.4578L-0.413055 22.5723L31.9874 -0.10675Z" fill="#C7152A"/>
<path fill-rule="evenodd" clip-rule="evenodd" d="M12.1571 -0.0539551H21.1358V7.48813H33.7059V16.9157H21.1358V24.4578H12.1571V16.9157H-0.413055V7.48813H12.1571V-0.0539551Z" fill="white"/>
<path fill-rule="evenodd" clip-rule="evenodd" d="M13.9528 -0.0539551H19.34V9.37365H33.7059V15.0302H19.34V24.4578H13.9528V15.0302H-0.413055V9.37365H13.9528V-0.0539551Z" fill="#C7152A"/>
<path d="M31.9102 -0.996704H1.38272C-0.104916 -0.996704 -1.31088 0.269561 -1.31088 1.83158V22.5723C-1.31088 24.1343 -0.104916 25.4006 1.38272 25.4006H31.9102C33.3979 25.4006 34.6038 24.1343 34.6038 22.5723V1.83158C34.6038 0.269561 33.3979 -0.996704 31.9102 -0.996704Z" stroke="black" stroke-opacity="0.1" stroke-width="2.0202"/>
</g>
</g>
<defs>
<clipPath id="clip0_217_112">
<rect width="32.3232" height="24.2424" fill="white" transform="translate(0.484848 0.0807495)"/>
</clipPath>
<clipPath id="clip1_217_112">
<rect width="37.7104" height="28.2828" fill="white" transform="translate(-2.20877 -1.93945)"/>
</clipPath>
</defs>
</svg>
